<svg width="208" height="94" viewBox="0 0 208 94" fill="none" xmlns="http://www.w3.org/2000/svg">
<path opacity="0.1" d="M34.0512 32.6778H26.848C27.9049 34.3321 28.5942 36.2507 28.9159 38.4334H35.8433L34.0167 45.2575H28.8814C28.353 48.681 26.9859 51.4037 24.7801 53.4256C22.5744 55.4475 19.4036 56.8606 15.2679 57.6648L30.329 75.5175V76H18.9211L2.24021 56.4585L2.20574 50.3927H10.3739C14.6245 50.3927 17.2898 48.681 18.3697 45.2575H1.37859L3.17076 38.4334H18.1629C17.0371 35.6533 14.5671 34.2402 10.753 34.1943H1.37859L3.41201 25.8193H35.8433L34.0512 32.6778Z" fill="white" fill-opacity="0.4"/>
<path d="M176.5 31.5C168.146 31.5 160.134 28.1813 154.226 22.2739C148.319 16.3665 145 8.35432 145 0H176.5V31.5Z" fill="white" fill-opacity="0.13"/>
<path d="M176.5 17.9125C174.148 17.9125 171.819 17.4492 169.646 16.5489C167.473 15.6487 165.498 14.3292 163.835 12.6658C162.172 11.0025 160.853 9.02776 159.953 6.85454C159.054 4.68131 158.591 2.35213 158.591 0H176.5V17.9125Z" fill="white" fill-opacity="0.1"/>
<path d="M198.991 9.00928H185.509V22.4909H198.991V9.00928Z" fill="white" fill-opacity="0.05"/>
<path d="M208 31.5H176.5V63H208V31.5Z" fill="white" fill-opacity="0.1"/>
<path d="M176.5 47.25C176.5 38.5515 169.448 31.5 160.75 31.5C152.052 31.5 145 38.5515 145 47.25C145 55.9485 152.052 63 160.75 63C169.448 63 176.5 55.9485 176.5 47.25Z" fill="white" fill-opacity="0.1"/>
<path d="M160.75 54.2782C158.886 54.2782 157.098 53.5378 155.78 52.2197C154.462 50.9017 153.722 49.1141 153.722 47.2501V47.2501C153.723 45.3864 154.463 43.5993 155.781 42.2815C157.099 40.9637 158.886 40.2229 160.75 40.2219C162.614 40.2219 164.401 40.9624 165.719 42.2804C167.038 43.5985 167.778 45.3861 167.778 47.2501V47.2501C167.778 49.1141 167.038 50.9017 165.719 52.2197C164.401 53.5378 162.614 54.2782 160.75 54.2782V54.2782Z" fill="white" fill-opacity="0.13"/>
<path d="M180.428 42.8419C180.778 42.8407 181.116 42.7186 181.385 42.4962C181.655 42.2738 181.839 41.965 181.907 41.6221C181.974 41.2792 181.921 40.9236 181.756 40.6155C181.591 40.3075 181.325 40.0661 181.002 39.9324C180.679 39.7987 180.32 39.781 179.985 39.8822C179.651 39.9835 179.362 40.1974 179.167 40.4877C178.972 40.778 178.884 41.1267 178.918 41.4745C178.951 41.8224 179.104 42.1479 179.351 42.3958C179.637 42.6801 180.024 42.8403 180.428 42.8419" fill="white" fill-opacity="0.05"/>
<path d="M196.163 42.842C196.568 42.842 196.956 42.6812 197.242 42.3952C197.528 42.1091 197.688 41.7211 197.688 41.3165C197.688 40.9119 197.528 40.5239 197.242 40.2378C196.956 39.9517 196.568 39.791 196.163 39.791C195.758 39.791 195.37 39.9517 195.084 40.2378C194.798 40.5239 194.637 40.9119 194.637 41.3165C194.637 41.7211 194.798 42.1091 195.084 42.3952C195.37 42.6812 195.758 42.842 196.163 42.842Z" fill="white" fill-opacity="0.05"/>
<path d="M188.292 42.842C188.696 42.842 189.084 42.6812 189.371 42.3952C189.657 42.1091 189.817 41.7211 189.817 41.3165C189.817 40.9119 189.657 40.5239 189.371 40.2378C189.084 39.9517 188.696 39.791 188.292 39.791C187.887 39.791 187.499 39.9517 187.213 40.2378C186.927 40.5239 186.766 40.9119 186.766 41.3165C186.766 41.7211 186.927 42.1091 187.213 42.3952C187.499 42.6812 187.887 42.842 188.292 42.842Z" fill="white" fill-opacity="0.05"/>
<path d="M204.034 42.8418C204.383 42.8398 204.721 42.717 204.99 42.4941C205.259 42.2713 205.443 41.9622 205.51 41.6193C205.577 41.2765 205.523 40.9211 205.357 40.6134C205.192 40.3058 204.925 40.0649 204.602 39.9317C204.279 39.7985 203.92 39.7811 203.586 39.8826C203.252 39.9841 202.963 40.1982 202.769 40.4885C202.574 40.7787 202.487 41.1273 202.52 41.475C202.554 41.8227 202.707 42.148 202.953 42.3957C203.24 42.6813 203.629 42.8417 204.034 42.8418Z" fill="white" fill-opacity="0.05"/>
<path d="M180.428 36.5738C180.778 36.5726 181.116 36.4505 181.385 36.2281C181.655 36.0058 181.839 35.6969 181.907 35.354C181.974 35.0112 181.921 34.6555 181.756 34.3474C181.591 34.0394 181.325 33.798 181.002 33.6643C180.679 33.5307 180.32 33.5129 179.985 33.6142C179.651 33.7154 179.362 33.9293 179.167 34.2196C178.972 34.5099 178.884 34.8586 178.918 35.2065C178.951 35.5543 179.104 35.8798 179.351 36.1277C179.637 36.412 180.024 36.5722 180.428 36.5738" fill="white" fill-opacity="0.05"/>
<path d="M196.163 36.5737C196.568 36.5737 196.956 36.4129 197.242 36.1269C197.528 35.8408 197.688 35.4528 197.688 35.0482C197.688 34.6436 197.528 34.2556 197.242 33.9695C196.956 33.6834 196.568 33.5227 196.163 33.5227C195.758 33.5227 195.37 33.6834 195.084 33.9695C194.798 34.2556 194.637 34.6436 194.637 35.0482C194.637 35.4528 194.798 35.8408 195.084 36.1269C195.37 36.4129 195.758 36.5737 196.163 36.5737Z" fill="white" fill-opacity="0.05"/>
<path d="M188.292 36.5737C188.696 36.5737 189.084 36.4129 189.371 36.1269C189.657 35.8408 189.817 35.4528 189.817 35.0482C189.817 34.6436 189.657 34.2556 189.371 33.9695C189.084 33.6834 188.696 33.5227 188.292 33.5227C187.887 33.5227 187.499 33.6834 187.213 33.9695C186.927 34.2556 186.766 34.6436 186.766 35.0482C186.766 35.4528 186.927 35.8408 187.213 36.1269C187.499 36.4129 187.887 36.5737 188.292 36.5737Z" fill="white" fill-opacity="0.05"/>
<path d="M204.034 36.5738C204.383 36.5718 204.721 36.4489 204.99 36.226C205.259 36.0032 205.443 35.6941 205.51 35.3513C205.577 35.0084 205.523 34.653 205.357 34.3454C205.192 34.0377 204.925 33.7968 204.602 33.6636C204.279 33.5304 203.92 33.5131 203.586 33.6146C203.252 33.7161 202.963 33.9301 202.769 34.2204C202.574 34.5107 202.487 34.8592 202.52 35.2069C202.554 35.5546 202.707 35.8799 202.953 36.1277C203.24 36.4132 203.629 36.5736 204.034 36.5738" fill="white" fill-opacity="0.05"/>
<path d="M180.428 49.1102C180.778 49.109 181.116 48.9869 181.385 48.7645C181.655 48.5421 181.839 48.2333 181.907 47.8904C181.974 47.5475 181.921 47.1919 181.756 46.8838C181.591 46.5758 181.325 46.3344 181.002 46.2007C180.679 46.067 180.32 46.0493 179.985 46.1505C179.651 46.2518 179.362 46.4657 179.167 46.756C178.972 47.0463 178.884 47.395 178.918 47.7429C178.951 48.0907 179.104 48.4162 179.351 48.6641C179.637 48.9484 180.024 49.1086 180.428 49.1102" fill="white" fill-opacity="0.05"/>
<path d="M196.163 49.11C196.568 49.11 196.956 48.9493 197.242 48.6632C197.528 48.3772 197.688 47.9891 197.688 47.5846C197.688 47.18 197.528 46.792 197.242 46.5059C196.956 46.2198 196.568 46.0591 196.163 46.0591C195.758 46.0591 195.37 46.2198 195.084 46.5059C194.798 46.792 194.637 47.18 194.637 47.5846C194.637 47.9891 194.798 48.3772 195.084 48.6632C195.37 48.9493 195.758 49.11 196.163 49.11Z" fill="white" fill-opacity="0.05"/>
<path d="M188.292 49.11C188.696 49.11 189.084 48.9493 189.371 48.6632C189.657 48.3772 189.817 47.9891 189.817 47.5846C189.817 47.18 189.657 46.792 189.371 46.5059C189.084 46.2198 188.696 46.0591 188.292 46.0591C187.887 46.0591 187.499 46.2198 187.213 46.5059C186.927 46.792 186.766 47.18 186.766 47.5846C186.766 47.9891 186.927 48.3772 187.213 48.6632C187.499 48.9493 187.887 49.11 188.292 49.11Z" fill="white" fill-opacity="0.05"/>
<path d="M204.034 49.1102C204.383 49.1081 204.721 48.9853 204.99 48.7624C205.259 48.5396 205.443 48.2305 205.51 47.8876C205.577 47.5448 205.523 47.1894 205.357 46.8818C205.192 46.5741 204.925 46.3332 204.602 46.2C204.279 46.0668 203.92 46.0494 203.586 46.1509C203.252 46.2524 202.963 46.4665 202.769 46.7568C202.574 47.047 202.487 47.3956 202.52 47.7433C202.554 48.091 202.707 48.4163 202.953 48.664C203.24 48.9496 203.629 49.11 204.034 49.1102" fill="white" fill-opacity="0.05"/>
<path d="M180.428 55.3782C180.778 55.3771 181.116 55.2549 181.385 55.0326C181.655 54.8102 181.839 54.5013 181.907 54.1585C181.974 53.8156 181.921 53.4599 181.756 53.1519C181.591 52.8438 181.325 52.6025 181.002 52.4688C180.679 52.3351 180.32 52.3174 179.985 52.4186C179.651 52.5198 179.362 52.7338 179.167 53.0241C178.972 53.3144 178.884 53.6631 178.918 54.0109C178.951 54.3588 179.104 54.6843 179.351 54.9321C179.637 55.2164 180.024 55.3767 180.428 55.3782" fill="white" fill-opacity="0.05"/>
<path d="M196.163 55.3783C196.568 55.3783 196.956 55.2176 197.242 54.9315C197.528 54.6455 197.688 54.2574 197.688 53.8529C197.688 53.4483 197.528 53.0603 197.242 52.7742C196.956 52.4881 196.568 52.3274 196.163 52.3274C195.758 52.3274 195.37 52.4881 195.084 52.7742C194.798 53.0603 194.637 53.4483 194.637 53.8529C194.637 54.2574 194.798 54.6455 195.084 54.9315C195.37 55.2176 195.758 55.3783 196.163 55.3783Z" fill="white" fill-opacity="0.05"/>
<path d="M188.292 55.3783C188.696 55.3783 189.084 55.2176 189.371 54.9315C189.657 54.6455 189.817 54.2574 189.817 53.8529C189.817 53.4483 189.657 53.0603 189.371 52.7742C189.084 52.4881 188.696 52.3274 188.292 52.3274C187.887 52.3274 187.499 52.4881 187.213 52.7742C186.927 53.0603 186.766 53.4483 186.766 53.8529C186.766 54.2574 186.927 54.6455 187.213 54.9315C187.499 55.2176 187.887 55.3783 188.292 55.3783Z" fill="white" fill-opacity="0.05"/>
<path d="M204.034 55.3782C204.383 55.3762 204.721 55.2533 204.99 55.0305C205.259 54.8076 205.443 54.4985 205.51 54.1557C205.577 53.8129 205.523 53.4575 205.357 53.1498C205.192 52.8422 204.925 52.6013 204.602 52.4681C204.279 52.3349 203.92 52.3175 203.586 52.419C203.252 52.5205 202.963 52.7346 202.769 53.0248C202.574 53.3151 202.487 53.6637 202.52 54.0114C202.554 54.359 202.707 54.6844 202.953 54.9321C203.24 55.2177 203.629 55.3781 204.034 55.3782" fill="white" fill-opacity="0.05"/>
<path d="M180.428 61.6466C180.778 61.6454 181.116 61.5233 181.385 61.3009C181.655 61.0785 181.839 60.7696 181.907 60.4268C181.974 60.0839 181.921 59.7282 181.756 59.4202C181.591 59.1122 181.325 58.8708 181.002 58.7371C180.679 58.6034 180.32 58.5857 179.985 58.6869C179.651 58.7881 179.362 59.0021 179.167 59.2924C178.972 59.5827 178.884 59.9314 178.918 60.2792C178.951 60.6271 179.104 60.9526 179.351 61.2004C179.637 61.4848 180.024 61.645 180.428 61.6466" fill="white" fill-opacity="0.05"/>
<path d="M196.163 61.6467C196.568 61.6467 196.956 61.4859 197.242 61.1999C197.528 60.9138 197.688 60.5258 197.688 60.1212C197.688 59.7166 197.528 59.3286 197.242 59.0425C196.956 58.7564 196.568 58.5957 196.163 58.5957C195.758 58.5957 195.37 58.7564 195.084 59.0425C194.798 59.3286 194.637 59.7166 194.637 60.1212C194.637 60.5258 194.798 60.9138 195.084 61.1999C195.37 61.4859 195.758 61.6467 196.163 61.6467Z" fill="white" fill-opacity="0.05"/>
<path d="M188.292 61.6467C188.696 61.6467 189.084 61.4859 189.371 61.1999C189.657 60.9138 189.817 60.5258 189.817 60.1212C189.817 59.7166 189.657 59.3286 189.371 59.0425C189.084 58.7564 188.696 58.5957 188.292 58.5957C187.887 58.5957 187.499 58.7564 187.213 59.0425C186.927 59.3286 186.766 59.7166 186.766 60.1212C186.766 60.5258 186.927 60.9138 187.213 61.1999C187.499 61.4859 187.887 61.6467 188.292 61.6467Z" fill="white" fill-opacity="0.05"/>
<path d="M204.034 61.6466C204.438 61.6454 204.825 61.4851 205.112 61.2005C205.396 60.9122 205.556 60.5241 205.558 60.1192C205.558 59.7146 205.397 59.3266 205.111 59.0406C204.825 58.7545 204.437 58.5938 204.032 58.5938C203.628 58.5938 203.24 58.7545 202.954 59.0406C202.668 59.3266 202.507 59.7146 202.507 60.1192C202.507 60.5203 202.666 60.9049 202.95 61.1885C203.233 61.4721 203.618 61.6315 204.019 61.6315" fill="white" fill-opacity="0.05"/>
</svg>
