<svg width="206" height="100" viewBox="0 0 206 100" fill="none" xmlns="http://www.w3.org/2000/svg">
<path d="M170.713 99.9589C163.892 99.9545 157.352 97.2418 152.53 92.4171C147.709 87.5923 145 81.0505 145 74.2294V74.2294C145 67.4056 147.711 60.8612 152.536 56.036C157.361 51.2108 163.906 48.5 170.729 48.5C177.553 48.5 184.098 51.2108 188.923 56.036C193.748 60.8612 196.459 67.4056 196.459 74.2294C196.459 77.6097 195.793 80.9568 194.499 84.0795C193.205 87.2022 191.308 90.0393 188.917 92.4287C186.526 94.8181 183.688 96.713 180.564 98.0051C177.441 99.2971 174.093 99.961 170.713 99.9589V99.9589Z" fill="white" fill-opacity="0.15"/>
<path d="M206 23H196V49H206V23Z" fill="white" fill-opacity="0.15"/>
<path d="M196.467 74.3364H170.795V100H196.467V74.3364Z" fill="white" fill-opacity="0.15"/>
<path d="M196 0H170V23H196V0Z" fill="white" fill-opacity="0.15"/>
<path d="M183.038 65.4032V9.7124H181.128V65.4032H183.038Z" fill="white" fill-opacity="0.15"/>
<path d="M177.687 65.3949V9.7041H175.776V65.3949H177.687Z" fill="white" fill-opacity="0.15"/>
<path d="M172.335 65.4032V9.7124H170.425V65.4032H172.335Z" fill="white" fill-opacity="0.15"/>
<path opacity="0.1" d="M34.0512 29.6778H26.848C27.9049 31.3321 28.5942 33.2507 28.9159 35.4334H35.8433L34.0167 42.2575H28.8814C28.353 45.681 26.9859 48.4037 24.7801 50.4256C22.5744 52.4475 19.4036 53.8606 15.2679 54.6648L30.329 72.5175V73H18.9211L2.24021 53.4585L2.20574 47.3927H10.3739C14.6245 47.3927 17.2898 45.681 18.3697 42.2575H1.37859L3.17076 35.4334H18.1629C17.0371 32.6533 14.5671 31.2402 10.753 31.1943H1.37859L3.41201 22.8193H35.8433L34.0512 29.6778Z" fill="white" fill-opacity="0.6"/>
</svg>
