<svg width="208" height="94" viewBox="0 0 208 94" fill="none" xmlns="http://www.w3.org/2000/svg">
<path d="M168.004 40.239C173.325 40.1859 178.41 38.0357 182.155 34.2555C185.9 30.4753 188.002 25.3702 188.005 20.0491V20.0491L168.004 20.0491L168.004 40.239Z" fill="white" fill-opacity="0.08"/>
<path d="M168.007 0.0160065L168.007 20.0203L188.012 20.0203L188.012 0.0160056L168.007 0.0160065Z" fill="white" fill-opacity="0.05"/>
<path d="M208.025 20.03L188.021 20.03L188.021 40.0343L208.025 40.0343L208.025 20.03Z" fill="white" fill-opacity="0.05"/>
<path d="M188.024 40.0339L208.025 40.0339C208.025 45.3394 205.918 50.4275 202.166 54.1791C198.415 57.9306 193.327 60.0382 188.021 60.0382L188.021 40.0339L188.024 40.0339Z" fill="white" fill-opacity="0.05"/>
<path d="M168.049 40.1204L187.944 60.0222L168.049 60.0222L168.049 40.1204Z" fill="white" fill-opacity="0.08"/>
<path d="M168.01 -5.33444e-05L188.034 20.0266L168.01 20.0266L168.01 -5.33444e-05Z" fill="white" fill-opacity="0.08"/>
<path d="M188.005 19.9943L208.029 40.021L188.005 40.021L188.005 19.9943Z" fill="white" fill-opacity="0.05"/>
<path d="M158.082 60.0127L158.082 69.9924L168.059 69.9924L168.059 60.0127L158.082 60.0127Z" fill="white" fill-opacity="0.13"/>
<path d="M158.079 50.0491C160.725 50.0491 163.263 51.1002 165.134 52.9712C167.005 54.8421 168.056 57.3797 168.056 60.0256V60.0256L158.079 60.0256L158.079 50.0491Z" fill="white" fill-opacity="0.08"/>
<path d="M148.038 20.0363L168.03 20.0363L168.03 40.239C167.325 40.2327 166.621 40.1888 165.921 40.1078C165.697 40.0854 165.476 40.0566 165.255 40.0214C164.609 39.9287 163.968 39.8027 163.334 39.6437C163.11 39.5893 162.886 39.5285 162.665 39.4645C162.015 39.2844 161.374 39.0708 160.745 38.8243C160.521 38.7347 160.3 38.6419 160.079 38.5459C159.422 38.2619 158.781 37.9414 158.159 37.5857C157.935 37.4576 157.711 37.3232 157.493 37.1856C156.825 36.7715 156.184 36.3161 155.573 35.8221C155.346 35.6428 155.125 35.4572 154.907 35.2652C154.587 34.9707 154.241 34.6634 153.924 34.3465C153.608 34.0297 153.284 33.7064 152.993 33.3479C152.763 33.0855 152.542 32.8198 152.327 32.5478C151.603 31.6294 150.96 30.6495 150.407 29.6192C150.167 29.1775 149.946 28.7294 149.741 28.2685C148.594 25.6882 148.001 22.8955 148.003 20.0715V20.0715L148.038 20.0363Z" fill="white" fill-opacity="0.05"/>
<path d="M165.255 20.0362L165.921 20.0362L165.921 40.1077C165.697 40.0853 165.476 40.0565 165.255 40.0213L165.255 20.0362Z" fill="white" fill-opacity="0.13"/>
<path d="M162.672 20.0362L163.341 20.0362L163.341 39.6436C163.117 39.5891 162.893 39.5283 162.672 39.4643L162.672 20.0362Z" fill="white" fill-opacity="0.13"/>
<path d="M160.092 20.0361L160.758 20.0361L160.758 38.8113C160.534 38.7217 160.313 38.6288 160.092 38.5328L160.092 20.0361Z" fill="white" fill-opacity="0.13"/>
<path d="M157.512 20.0361L158.178 20.0361L158.178 37.563C157.954 37.435 157.73 37.3005 157.512 37.1629L157.512 20.0361Z" fill="white" fill-opacity="0.13"/>
<path d="M154.929 20.036L155.595 20.036L155.595 35.7993C155.368 35.6201 155.147 35.4344 154.929 35.2424L154.929 20.036Z" fill="white" fill-opacity="0.13"/>
<path d="M152.35 20.0361L153.016 20.0361L153.016 33.3157C152.785 33.0532 152.564 32.7876 152.35 32.5155L152.35 20.0361Z" fill="white" fill-opacity="0.13"/>
<path d="M149.767 20.036L150.432 20.036L150.432 29.5964C150.192 29.1547 149.971 28.7066 149.767 28.2457L149.767 20.036Z" fill="white" fill-opacity="0.13"/>
<path d="M168.004 0.0289447L168.004 20.0332L148 20.0332C148.001 14.728 150.109 9.64034 153.86 5.889C157.611 2.13766 162.699 0.0297936 168.004 0.0289447V0.0289447Z" fill="white" fill-opacity="0.13"/>
<path d="M170.078 74.6493C170.212 74.6493 170.343 74.6889 170.454 74.7631C170.565 74.8373 170.651 74.9428 170.702 75.0662C170.753 75.1896 170.767 75.3254 170.741 75.4564C170.715 75.5874 170.65 75.7077 170.556 75.8022C170.462 75.8966 170.341 75.961 170.21 75.987C170.079 76.0131 169.943 75.9997 169.82 75.9486C169.697 75.8975 169.591 75.8109 169.517 75.6999C169.443 75.5888 169.403 75.4582 169.403 75.3247C169.403 75.2358 169.42 75.1478 169.454 75.0657C169.487 74.9836 169.537 74.909 169.6 74.8462C169.663 74.7834 169.737 74.7336 169.819 74.6999C169.902 74.6661 169.99 74.6489 170.078 74.6493V74.6493Z" fill="white" fill-opacity="0.05"/>
<path d="M173.609 74.6493C173.742 74.6493 173.873 74.6889 173.984 74.7631C174.095 74.8373 174.182 74.9428 174.233 75.0662C174.284 75.1896 174.297 75.3254 174.271 75.4564C174.245 75.5874 174.181 75.7077 174.086 75.8022C173.992 75.8966 173.871 75.961 173.74 75.987C173.609 76.0131 173.474 75.9997 173.35 75.9486C173.227 75.8975 173.121 75.8109 173.047 75.6999C172.973 75.5888 172.933 75.4582 172.933 75.3247C172.933 75.2358 172.95 75.1478 172.984 75.0657C173.018 74.9836 173.067 74.909 173.13 74.8462C173.193 74.7834 173.268 74.7336 173.35 74.6999C173.432 74.6661 173.52 74.6489 173.609 74.6493V74.6493Z" fill="white" fill-opacity="0.05"/>
<path d="M170.078 71.2118C170.212 71.2118 170.343 71.2514 170.454 71.3256C170.565 71.3998 170.651 71.5053 170.702 71.6287C170.753 71.7521 170.767 71.8879 170.741 72.0189C170.715 72.1499 170.65 72.2702 170.556 72.3647C170.462 72.4591 170.341 72.5235 170.21 72.5495C170.079 72.5756 169.943 72.5622 169.82 72.5111C169.697 72.46 169.591 72.3734 169.517 72.2624C169.443 72.1513 169.403 72.0207 169.403 71.8872C169.403 71.7983 169.42 71.7103 169.454 71.6282C169.487 71.5461 169.537 71.4715 169.6 71.4087C169.663 71.3459 169.737 71.2961 169.819 71.2624C169.902 71.2286 169.99 71.2114 170.078 71.2118V71.2118Z" fill="white" fill-opacity="0.05"/>
<path d="M173.609 71.2118C173.742 71.2118 173.873 71.2514 173.984 71.3256C174.095 71.3998 174.182 71.5053 174.233 71.6287C174.284 71.7521 174.297 71.8879 174.271 72.0189C174.245 72.1499 174.181 72.2702 174.086 72.3647C173.992 72.4591 173.871 72.5235 173.74 72.5495C173.609 72.5756 173.474 72.5622 173.35 72.5111C173.227 72.46 173.121 72.3734 173.047 72.2624C172.973 72.1513 172.933 72.0207 172.933 71.8872C172.933 71.7983 172.95 71.7103 172.984 71.6282C173.018 71.5461 173.067 71.4715 173.13 71.4087C173.193 71.3459 173.268 71.2961 173.35 71.2624C173.432 71.2286 173.52 71.2114 173.609 71.2118V71.2118Z" fill="white" fill-opacity="0.05"/>
<path d="M193.386 12.1657C193.738 12.1651 194.082 12.269 194.376 12.4643C194.669 12.6596 194.897 12.9375 195.032 13.2628C195.168 13.5881 195.203 13.9462 195.134 14.2917C195.066 14.6372 194.896 14.9545 194.647 15.2036C194.398 15.4527 194.081 15.6223 193.735 15.6908C193.39 15.7594 193.032 15.7239 192.706 15.5888C192.381 15.4537 192.103 15.2251 191.908 14.932C191.713 14.6388 191.609 14.2943 191.609 13.9421C191.609 13.4709 191.797 13.0191 192.13 12.686C192.463 12.3528 192.915 12.1657 193.386 12.1657V12.1657Z" fill="white" fill-opacity="0.08"/>
<path d="M202.671 12.1657C203.023 12.1651 203.367 12.269 203.661 12.4643C203.954 12.6596 204.182 12.9375 204.317 13.2628C204.452 13.5881 204.488 13.9462 204.419 14.2917C204.351 14.6372 204.181 14.9545 203.932 15.2036C203.683 15.4527 203.366 15.6223 203.02 15.6908C202.675 15.7594 202.317 15.7239 201.991 15.5888C201.666 15.4537 201.388 15.2251 201.193 14.932C200.998 14.6388 200.894 14.2943 200.894 13.9421C200.895 13.4712 201.083 13.0199 201.416 12.6869C201.748 12.354 202.2 12.1665 202.671 12.1657Z" fill="white" fill-opacity="0.08"/>
<path opacity="0.1" d="M34.0512 32.6778H26.848C27.9049 34.3321 28.5942 36.2507 28.9159 38.4334H35.8433L34.0167 45.2575H28.8814C28.353 48.681 26.9859 51.4037 24.7801 53.4256C22.5744 55.4475 19.4036 56.8606 15.2679 57.6648L30.329 75.5175V76H18.9211L2.24021 56.4585L2.20574 50.3927H10.3739C14.6245 50.3927 17.2898 48.681 18.3697 45.2575H1.37859L3.17076 38.4334H18.1629C17.0371 35.6533 14.5671 34.2402 10.753 34.1943H1.37859L3.41201 25.8193H35.8433L34.0512 32.6778Z" fill="white" fill-opacity="0.4"/>
</svg>
