<svg width="60" height="76" viewBox="0 0 60 76" fill="none" xmlns="http://www.w3.org/2000/svg">
<path d="M20.0042 40.239C25.325 40.1859 30.4101 38.0357 34.1549 34.2555C37.8998 30.4753 40.0021 25.3702 40.0052 20.0491L20.0041 20.0491L20.0042 40.239Z" fill="white" fill-opacity="0.58"/>
<path d="M20.0073 0.0160065L20.0073 20.0203L40.0116 20.0203L40.0116 0.0160056L20.0073 0.0160065Z" fill="white" fill-opacity="0.55"/>
<path d="M60.0255 20.03L40.0212 20.03L40.0212 40.0343L60.0255 40.0343L60.0255 20.03Z" fill="white" fill-opacity="0.55"/>
<path d="M40.0244 40.0339L60.0255 40.0339C60.0255 45.3394 57.9179 50.4275 54.1664 54.1791C50.4149 57.9306 45.3267 60.0382 40.0212 60.0382L40.0212 40.0339L40.0244 40.0339Z" fill="white" fill-opacity="0.55"/>
<path d="M20.0491 40.1204L39.9445 60.0222L20.0491 60.0222L20.0491 40.1204Z" fill="white" fill-opacity="0.58"/>
<path d="M20.0105 -5.34058e-05L40.034 20.0266L20.0105 20.0266L20.0105 -5.34058e-05Z" fill="white" fill-opacity="0.58"/>
<path d="M40.0054 19.9943L60.0288 40.021L40.0054 40.021L40.0054 19.9943Z" fill="white" fill-opacity="0.55"/>
<path d="M10.082 60.0127L10.082 69.9924L20.0586 69.9924L20.0586 60.0127L10.082 60.0127Z" fill="white" fill-opacity="0.63"/>
<path d="M10.0791 50.0491C12.725 50.0491 15.2626 51.1002 17.1336 52.9712C19.0045 54.8421 20.0556 57.3797 20.0556 60.0256L10.0791 60.0256L10.0791 50.0491Z" fill="white" fill-opacity="0.58"/>
<path d="M0.0383794 20.0363L20.0298 20.0363L20.0298 40.239C19.3249 40.2327 18.6208 40.1888 17.9206 40.1078C17.6965 40.0854 17.4757 40.0566 17.2548 40.0214C16.6086 39.9287 15.9676 39.8027 15.3344 39.6437C15.1104 39.5893 14.8863 39.5285 14.6655 39.4645C14.0147 39.2844 13.3737 39.0708 12.7451 38.8243C12.521 38.7347 12.3002 38.6419 12.0793 38.5459C11.4218 38.2619 10.7806 37.9414 10.1589 37.5857C9.93488 37.4576 9.71084 37.3232 9.49319 37.1856C8.82531 36.7715 8.18393 36.3161 7.57279 35.8221C7.34554 35.6428 7.12469 35.4572 6.90704 35.2652C6.58697 34.9707 6.2413 34.6634 5.92444 34.3465C5.60757 34.0297 5.2843 33.7064 4.99304 33.3479C4.76259 33.0855 4.54174 32.8198 4.32729 32.5478C3.60296 31.6294 2.96037 30.6495 2.40688 29.6192C2.16683 29.1775 1.94599 28.7294 1.74114 28.2685C0.593611 25.6882 0.0014794 22.8955 0.00317659 20.0715L0.0383794 20.0363Z" fill="white" fill-opacity="0.55"/>
<path d="M17.2549 20.0362L17.9206 20.0362L17.9206 40.1077C17.6966 40.0853 17.4757 40.0565 17.2549 40.0213L17.2549 20.0362Z" fill="white" fill-opacity="0.63"/>
<path d="M14.6719 20.0362L15.3408 20.0362L15.3408 39.6436C15.1168 39.5891 14.8927 39.5283 14.6719 39.4643L14.6719 20.0362Z" fill="white" fill-opacity="0.63"/>
<path d="M12.0923 20.0361L12.758 20.0361L12.758 38.8113C12.534 38.7217 12.3131 38.6288 12.0923 38.5328L12.0923 20.0361Z" fill="white" fill-opacity="0.63"/>
<path d="M9.51245 20.0361L10.1782 20.0361L10.1782 37.563C9.95414 37.435 9.7301 37.3005 9.51245 37.1629L9.51245 20.0361Z" fill="white" fill-opacity="0.63"/>
<path d="M6.92944 20.036L7.59519 20.036L7.59519 35.7993C7.36794 35.6201 7.14709 35.4344 6.92944 35.2424L6.92944 20.036Z" fill="white" fill-opacity="0.63"/>
<path d="M4.34985 20.0361L5.0156 20.0361L5.0156 33.3157C4.78515 33.0532 4.5643 32.7876 4.34985 32.5155L4.34985 20.0361Z" fill="white" fill-opacity="0.63"/>
<path d="M1.7666 20.036L2.43235 20.036L2.43235 29.5964C2.1923 29.1547 1.97145 28.7066 1.7666 28.2457L1.7666 20.036Z" fill="white" fill-opacity="0.63"/>
<path d="M20.0043 0.028945L20.0043 20.0332L0 20.0332C0.000848396 14.728 2.1087 9.64034 5.86005 5.889C9.61139 2.13766 14.6991 0.0297941 20.0043 0.028945Z" fill="white" fill-opacity="0.63"/>
<path d="M22.0784 74.6493C22.212 74.6493 22.3426 74.6889 22.4536 74.7631C22.5647 74.8373 22.6512 74.9428 22.7024 75.0662C22.7535 75.1896 22.7669 75.3254 22.7408 75.4564C22.7147 75.5874 22.6504 75.7077 22.556 75.8022C22.4615 75.8966 22.3412 75.961 22.2102 75.987C22.0792 76.0131 21.9434 75.9997 21.82 75.9486C21.6966 75.8975 21.5911 75.8109 21.5169 75.6999C21.4427 75.5888 21.4031 75.4582 21.4031 75.3247C21.4027 75.2358 21.4198 75.1478 21.4536 75.0657C21.4874 74.9836 21.5371 74.909 21.5999 74.8462C21.6627 74.7834 21.7374 74.7336 21.8195 74.6999C21.9016 74.6661 21.9896 74.6489 22.0784 74.6493Z" fill="white" fill-opacity="0.55"/>
<path d="M25.6087 74.6493C25.7423 74.6493 25.8728 74.6889 25.9839 74.7631C26.095 74.8373 26.1815 74.9428 26.2326 75.0662C26.2838 75.1896 26.2971 75.3254 26.2711 75.4564C26.245 75.5874 26.1807 75.7077 26.0862 75.8022C25.9918 75.8966 25.8715 75.961 25.7405 75.987C25.6094 76.0131 25.4737 75.9997 25.3503 75.9486C25.2269 75.8975 25.1214 75.8109 25.0472 75.6999C24.973 75.5888 24.9334 75.4582 24.9334 75.3247C24.9329 75.2358 24.9501 75.1478 24.9839 75.0657C25.0177 74.9836 25.0674 74.909 25.1302 74.8462C25.193 74.7834 25.2676 74.7336 25.3498 74.6999C25.4319 74.6661 25.5199 74.6489 25.6087 74.6493Z" fill="white" fill-opacity="0.55"/>
<path d="M22.0784 71.2118C22.212 71.2118 22.3426 71.2514 22.4536 71.3256C22.5647 71.3998 22.6512 71.5053 22.7024 71.6287C22.7535 71.7521 22.7669 71.8879 22.7408 72.0189C22.7147 72.1499 22.6504 72.2702 22.556 72.3647C22.4615 72.4591 22.3412 72.5235 22.2102 72.5495C22.0792 72.5756 21.9434 72.5622 21.82 72.5111C21.6966 72.46 21.5911 72.3734 21.5169 72.2624C21.4427 72.1513 21.4031 72.0207 21.4031 71.8872C21.4027 71.7983 21.4198 71.7103 21.4536 71.6282C21.4874 71.5461 21.5371 71.4715 21.5999 71.4087C21.6627 71.3459 21.7374 71.2961 21.8195 71.2624C21.9016 71.2286 21.9896 71.2114 22.0784 71.2118Z" fill="white" fill-opacity="0.55"/>
<path d="M25.6087 71.2118C25.7423 71.2118 25.8728 71.2514 25.9839 71.3256C26.095 71.3998 26.1815 71.5053 26.2326 71.6287C26.2838 71.7521 26.2971 71.8879 26.2711 72.0189C26.245 72.1499 26.1807 72.2702 26.0862 72.3647C25.9918 72.4591 25.8715 72.5235 25.7405 72.5495C25.6094 72.5756 25.4737 72.5622 25.3503 72.5111C25.2269 72.46 25.1214 72.3734 25.0472 72.2624C24.973 72.1513 24.9334 72.0207 24.9334 71.8872C24.9329 71.7983 24.9501 71.7103 24.9839 71.6282C25.0177 71.5461 25.0674 71.4715 25.1302 71.4087C25.193 71.3459 25.2676 71.2961 25.3498 71.2624C25.4319 71.2286 25.5199 71.2114 25.6087 71.2118Z" fill="white" fill-opacity="0.55"/>
<path d="M45.3858 12.1657C45.738 12.1651 46.0825 12.269 46.3756 12.4643C46.6688 12.6596 46.8974 12.9375 47.0325 13.2628C47.1675 13.5881 47.2031 13.9462 47.1345 14.2917C47.0659 14.6372 46.8964 14.9545 46.6473 15.2036C46.3982 15.4527 46.0809 15.6223 45.7353 15.6908C45.3898 15.7594 45.0318 15.7239 44.7065 15.5888C44.3812 15.4537 44.1033 15.2251 43.908 14.932C43.7127 14.6388 43.6087 14.2943 43.6094 13.9421C43.6094 13.4709 43.7965 13.0191 44.1297 12.686C44.4628 12.3528 44.9146 12.1657 45.3858 12.1657Z" fill="white" fill-opacity="0.58"/>
<path d="M54.6707 12.1657C55.0229 12.1651 55.3674 12.269 55.6606 12.4643C55.9537 12.6596 56.1823 12.9375 56.3174 13.2628C56.4525 13.5881 56.488 13.9462 56.4194 14.2917C56.3508 14.6372 56.1813 14.9545 55.9322 15.2036C55.6831 15.4527 55.3658 15.6223 55.0203 15.6908C54.6748 15.7594 54.3167 15.7239 53.9914 15.5888C53.6661 15.4537 53.3882 15.2251 53.1929 14.932C52.9976 14.6388 52.8937 14.2943 52.8943 13.9421C52.8951 13.4712 53.0826 13.0199 53.4155 12.6869C53.7485 12.354 54.1998 12.1665 54.6707 12.1657Z" fill="white" fill-opacity="0.58"/>
</svg>
