<svg width="61" height="100" viewBox="0 0 61 100" fill="none" xmlns="http://www.w3.org/2000/svg">
<path d="M25.713 99.9589C18.892 99.9545 12.3518 97.2418 7.53016 92.4171C2.70851 87.5923 -1.39694e-06 81.0504 0 74.2294C0 67.4056 2.71078 60.8612 7.53598 56.036C12.3612 51.2108 18.9056 48.5 25.7294 48.5C32.5533 48.5 39.0977 51.2108 43.9229 56.036C48.7481 60.8612 51.4589 67.4056 51.4589 74.2294C51.4589 77.6097 50.7928 80.9568 49.4988 84.0795C48.2047 87.2022 46.308 90.0393 43.9171 92.4287C41.5261 94.8181 38.6878 96.713 35.5643 98.0051C32.4407 99.2971 29.0932 99.961 25.713 99.9589Z" fill="white" fill-opacity="0.4"/>
<path d="M61 23H51V49H61V23Z" fill="white" fill-opacity="0.4"/>
<path d="M51.4672 74.3364H25.7954V100H51.4672V74.3364Z" fill="white" fill-opacity="0.4"/>
<path d="M51 0H25V23H51V0Z" fill="white" fill-opacity="0.4"/>
<path d="M38.0383 65.4032V9.7124H36.1282V65.4032H38.0383Z" fill="white" fill-opacity="0.4"/>
<path d="M32.6865 65.3949V9.7041H30.7764L30.7764 65.3949H32.6865Z" fill="white" fill-opacity="0.4"/>
<path d="M27.335 65.4032L27.335 9.7124H25.4248L25.4248 65.4032H27.335Z" fill="white" fill-opacity="0.4"/>
</svg>
