<svg width="63" height="63" viewBox="0 0 63 63" fill="none" xmlns="http://www.w3.org/2000/svg">
<path d="M31.5 31.5C23.1457 31.5 15.1335 28.1813 9.22613 22.2739C3.31873 16.3665 0 8.35432 0 0H31.5V31.5Z" fill="white" fill-opacity="0.53"/>
<path d="M31.5 17.9125C29.1479 17.9125 26.8188 17.4492 24.6458 16.5489C22.4728 15.6487 20.4983 14.3292 18.8353 12.6658C17.1723 11.0025 15.8532 9.02776 14.9534 6.85454C14.0537 4.68131 13.5908 2.35213 13.5913 0H31.5V17.9125Z" fill="white" fill-opacity="0.5"/>
<path d="M53.9909 9.00928H40.5093V22.4909H53.9909V9.00928Z" fill="white" fill-opacity="0.45"/>
<path d="M63 31.5H31.5V63H63V31.5Z" fill="white" fill-opacity="0.5"/>
<path d="M31.5 47.25C31.5 38.5515 24.4485 31.5 15.75 31.5C7.05151 31.5 0 38.5515 0 47.25C0 55.9485 7.05151 63 15.75 63C24.4485 63 31.5 55.9485 31.5 47.25Z" fill="white" fill-opacity="0.5"/>
<path d="M15.7498 54.2782C13.8858 54.2782 12.0982 53.5378 10.7802 52.2197C9.46214 50.9017 8.72168 49.1141 8.72168 47.2501C8.72268 45.3864 9.46347 43.5993 10.7813 42.2815C12.0991 40.9637 13.8862 40.2229 15.7498 40.2219C17.6138 40.2219 19.4015 40.9624 20.7195 42.2804C22.0375 43.5985 22.778 45.3861 22.778 47.2501C22.778 49.1141 22.0375 50.9017 20.7195 52.2197C19.4015 53.5378 17.6138 54.2782 15.7498 54.2782Z" fill="white" fill-opacity="0.53"/>
<path d="M35.4281 42.8419C35.7776 42.8407 36.1158 42.7186 36.3854 42.4962C36.655 42.2738 36.8392 41.965 36.9068 41.6221C36.9744 41.2792 36.9212 40.9236 36.7561 40.6155C36.5911 40.3075 36.3245 40.0661 36.0016 39.9324C35.6788 39.7987 35.3195 39.781 34.9851 39.8822C34.6506 39.9835 34.3615 40.1974 34.1669 40.4877C33.9724 40.778 33.8844 41.1267 33.9179 41.4745C33.9513 41.8224 34.1043 42.1479 34.3506 42.3958C34.6373 42.6801 35.0243 42.8403 35.4281 42.8419Z" fill="white" fill-opacity="0.45"/>
<path d="M51.1629 42.842C51.5675 42.842 51.9555 42.6812 52.2416 42.3952C52.5277 42.1091 52.6884 41.7211 52.6884 41.3165C52.6884 40.9119 52.5277 40.5239 52.2416 40.2378C51.9555 39.9517 51.5675 39.791 51.1629 39.791C50.7583 39.791 50.3703 39.9517 50.0843 40.2378C49.7982 40.5239 49.6375 40.9119 49.6375 41.3165C49.6375 41.7211 49.7982 42.1091 50.0843 42.3952C50.3703 42.6812 50.7583 42.842 51.1629 42.842Z" fill="white" fill-opacity="0.45"/>
<path d="M43.2918 42.842C43.6964 42.842 44.0844 42.6812 44.3705 42.3952C44.6566 42.1091 44.8173 41.7211 44.8173 41.3165C44.8173 40.9119 44.6566 40.5239 44.3705 40.2378C44.0844 39.9517 43.6964 39.791 43.2918 39.791C42.8873 39.791 42.4992 39.9517 42.2132 40.2378C41.9271 40.5239 41.7664 40.9119 41.7664 41.3165C41.7664 41.7211 41.9271 42.1091 42.2132 42.3952C42.4992 42.6812 42.8873 42.842 43.2918 42.842Z" fill="white" fill-opacity="0.45"/>
<path d="M59.0342 42.8418C59.3835 42.8398 59.7213 42.717 59.9902 42.4941C60.2592 42.2713 60.4427 41.9622 60.5097 41.6193C60.5766 41.2765 60.5228 40.9211 60.3573 40.6134C60.1919 40.3058 59.9251 40.0649 59.6022 39.9317C59.2793 39.7985 58.9202 39.7811 58.586 39.8826C58.2518 39.9841 57.963 40.1982 57.7687 40.4885C57.5744 40.7787 57.4866 41.1273 57.5202 41.475C57.5538 41.8227 57.7067 42.148 57.9529 42.3957C58.2403 42.6813 58.629 42.8417 59.0342 42.8418Z" fill="white" fill-opacity="0.45"/>
<path d="M35.4281 36.5738C35.7776 36.5726 36.1158 36.4505 36.3854 36.2281C36.655 36.0058 36.8392 35.6969 36.9068 35.354C36.9744 35.0112 36.9212 34.6555 36.7561 34.3474C36.5911 34.0394 36.3245 33.798 36.0016 33.6643C35.6788 33.5307 35.3195 33.5129 34.9851 33.6142C34.6506 33.7154 34.3615 33.9293 34.1669 34.2196C33.9724 34.5099 33.8844 34.8586 33.9179 35.2065C33.9513 35.5543 34.1043 35.8798 34.3506 36.1277C34.6373 36.412 35.0243 36.5722 35.4281 36.5738Z" fill="white" fill-opacity="0.45"/>
<path d="M51.1629 36.5737C51.5675 36.5737 51.9555 36.4129 52.2416 36.1269C52.5277 35.8408 52.6884 35.4528 52.6884 35.0482C52.6884 34.6436 52.5277 34.2556 52.2416 33.9695C51.9555 33.6834 51.5675 33.5227 51.1629 33.5227C50.7583 33.5227 50.3703 33.6834 50.0843 33.9695C49.7982 34.2556 49.6375 34.6436 49.6375 35.0482C49.6375 35.4528 49.7982 35.8408 50.0843 36.1269C50.3703 36.4129 50.7583 36.5737 51.1629 36.5737Z" fill="white" fill-opacity="0.45"/>
<path d="M43.2918 36.5737C43.6964 36.5737 44.0844 36.4129 44.3705 36.1269C44.6566 35.8408 44.8173 35.4528 44.8173 35.0482C44.8173 34.6436 44.6566 34.2556 44.3705 33.9695C44.0844 33.6834 43.6964 33.5227 43.2918 33.5227C42.8873 33.5227 42.4992 33.6834 42.2132 33.9695C41.9271 34.2556 41.7664 34.6436 41.7664 35.0482C41.7664 35.4528 41.9271 35.8408 42.2132 36.1269C42.4992 36.4129 42.8873 36.5737 43.2918 36.5737Z" fill="white" fill-opacity="0.45"/>
<path d="M59.0342 36.5738C59.3835 36.5718 59.7213 36.4489 59.9902 36.226C60.2592 36.0032 60.4427 35.6941 60.5097 35.3513C60.5766 35.0084 60.5228 34.653 60.3573 34.3454C60.1919 34.0377 59.9251 33.7968 59.6022 33.6636C59.2793 33.5304 58.9202 33.5131 58.586 33.6146C58.2518 33.7161 57.963 33.9301 57.7687 34.2204C57.5744 34.5107 57.4866 34.8592 57.5202 35.2069C57.5538 35.5546 57.7067 35.8799 57.9529 36.1277C58.2403 36.4132 58.629 36.5736 59.0342 36.5738Z" fill="white" fill-opacity="0.45"/>
<path d="M35.4281 49.1102C35.7776 49.109 36.1158 48.9869 36.3854 48.7645C36.655 48.5421 36.8392 48.2333 36.9068 47.8904C36.9744 47.5475 36.9212 47.1919 36.7561 46.8838C36.5911 46.5758 36.3245 46.3344 36.0016 46.2007C35.6788 46.067 35.3195 46.0493 34.9851 46.1505C34.6506 46.2518 34.3615 46.4657 34.1669 46.756C33.9724 47.0463 33.8844 47.395 33.9179 47.7429C33.9513 48.0907 34.1043 48.4162 34.3506 48.6641C34.6373 48.9484 35.0243 49.1086 35.4281 49.1102Z" fill="white" fill-opacity="0.45"/>
<path d="M51.1629 49.11C51.5675 49.11 51.9555 48.9493 52.2416 48.6632C52.5277 48.3772 52.6884 47.9891 52.6884 47.5846C52.6884 47.18 52.5277 46.792 52.2416 46.5059C51.9555 46.2198 51.5675 46.0591 51.1629 46.0591C50.7583 46.0591 50.3703 46.2198 50.0843 46.5059C49.7982 46.792 49.6375 47.18 49.6375 47.5846C49.6375 47.9891 49.7982 48.3772 50.0843 48.6632C50.3703 48.9493 50.7583 49.11 51.1629 49.11Z" fill="white" fill-opacity="0.45"/>
<path d="M43.2918 49.11C43.6964 49.11 44.0844 48.9493 44.3705 48.6632C44.6566 48.3772 44.8173 47.9891 44.8173 47.5846C44.8173 47.18 44.6566 46.792 44.3705 46.5059C44.0844 46.2198 43.6964 46.0591 43.2918 46.0591C42.8873 46.0591 42.4992 46.2198 42.2132 46.5059C41.9271 46.792 41.7664 47.18 41.7664 47.5846C41.7664 47.9891 41.9271 48.3772 42.2132 48.6632C42.4992 48.9493 42.8873 49.11 43.2918 49.11Z" fill="white" fill-opacity="0.45"/>
<path d="M59.0342 49.1102C59.3835 49.1081 59.7213 48.9853 59.9902 48.7624C60.2592 48.5396 60.4427 48.2305 60.5097 47.8876C60.5766 47.5448 60.5228 47.1894 60.3573 46.8818C60.1919 46.5741 59.9251 46.3332 59.6022 46.2C59.2793 46.0668 58.9202 46.0494 58.586 46.1509C58.2518 46.2524 57.963 46.4665 57.7687 46.7568C57.5744 47.047 57.4866 47.3956 57.5202 47.7433C57.5538 48.091 57.7067 48.4163 57.9529 48.664C58.2403 48.9496 58.629 49.11 59.0342 49.1102Z" fill="white" fill-opacity="0.45"/>
<path d="M35.4281 55.3782C35.7776 55.3771 36.1158 55.2549 36.3854 55.0326C36.655 54.8102 36.8392 54.5013 36.9068 54.1585C36.9744 53.8156 36.9212 53.4599 36.7561 53.1519C36.5911 52.8438 36.3245 52.6025 36.0016 52.4688C35.6788 52.3351 35.3195 52.3174 34.9851 52.4186C34.6506 52.5198 34.3615 52.7338 34.1669 53.0241C33.9724 53.3144 33.8844 53.6631 33.9179 54.0109C33.9513 54.3588 34.1043 54.6843 34.3506 54.9321C34.6373 55.2164 35.0243 55.3767 35.4281 55.3782Z" fill="white" fill-opacity="0.45"/>
<path d="M51.1629 55.3783C51.5675 55.3783 51.9555 55.2176 52.2416 54.9315C52.5277 54.6455 52.6884 54.2574 52.6884 53.8529C52.6884 53.4483 52.5277 53.0603 52.2416 52.7742C51.9555 52.4881 51.5675 52.3274 51.1629 52.3274C50.7583 52.3274 50.3703 52.4881 50.0843 52.7742C49.7982 53.0603 49.6375 53.4483 49.6375 53.8529C49.6375 54.2574 49.7982 54.6455 50.0843 54.9315C50.3703 55.2176 50.7583 55.3783 51.1629 55.3783Z" fill="white" fill-opacity="0.45"/>
<path d="M43.2918 55.3783C43.6964 55.3783 44.0844 55.2176 44.3705 54.9315C44.6566 54.6455 44.8173 54.2574 44.8173 53.8529C44.8173 53.4483 44.6566 53.0603 44.3705 52.7742C44.0844 52.4881 43.6964 52.3274 43.2918 52.3274C42.8873 52.3274 42.4992 52.4881 42.2132 52.7742C41.9271 53.0603 41.7664 53.4483 41.7664 53.8529C41.7664 54.2574 41.9271 54.6455 42.2132 54.9315C42.4992 55.2176 42.8873 55.3783 43.2918 55.3783Z" fill="white" fill-opacity="0.45"/>
<path d="M59.0342 55.3782C59.3835 55.3762 59.7213 55.2533 59.9902 55.0305C60.2592 54.8076 60.4427 54.4985 60.5097 54.1557C60.5766 53.8129 60.5228 53.4575 60.3573 53.1498C60.1919 52.8422 59.9251 52.6013 59.6022 52.4681C59.2793 52.3349 58.9202 52.3175 58.586 52.419C58.2518 52.5205 57.963 52.7346 57.7687 53.0248C57.5744 53.3151 57.4866 53.6637 57.5202 54.0114C57.5538 54.359 57.7067 54.6844 57.9529 54.9321C58.2403 55.2177 58.629 55.3781 59.0342 55.3782Z" fill="white" fill-opacity="0.45"/>
<path d="M35.4281 61.6466C35.7776 61.6454 36.1158 61.5233 36.3854 61.3009C36.655 61.0785 36.8392 60.7696 36.9068 60.4268C36.9744 60.0839 36.9212 59.7282 36.7561 59.4202C36.5911 59.1122 36.3245 58.8708 36.0016 58.7371C35.6788 58.6034 35.3195 58.5857 34.9851 58.6869C34.6506 58.7881 34.3615 59.0021 34.1669 59.2924C33.9724 59.5827 33.8844 59.9314 33.9179 60.2792C33.9513 60.6271 34.1043 60.9526 34.3506 61.2004C34.6373 61.4848 35.0243 61.645 35.4281 61.6466Z" fill="white" fill-opacity="0.45"/>
<path d="M51.1629 61.6467C51.5675 61.6467 51.9555 61.4859 52.2416 61.1999C52.5277 60.9138 52.6884 60.5258 52.6884 60.1212C52.6884 59.7166 52.5277 59.3286 52.2416 59.0425C51.9555 58.7564 51.5675 58.5957 51.1629 58.5957C50.7583 58.5957 50.3703 58.7564 50.0843 59.0425C49.7982 59.3286 49.6375 59.7166 49.6375 60.1212C49.6375 60.5258 49.7982 60.9138 50.0843 61.1999C50.3703 61.4859 50.7583 61.6467 51.1629 61.6467Z" fill="white" fill-opacity="0.45"/>
<path d="M43.2918 61.6467C43.6964 61.6467 44.0844 61.4859 44.3705 61.1999C44.6566 60.9138 44.8173 60.5258 44.8173 60.1212C44.8173 59.7166 44.6566 59.3286 44.3705 59.0425C44.0844 58.7564 43.6964 58.5957 43.2918 58.5957C42.8873 58.5957 42.4992 58.7564 42.2132 59.0425C41.9271 59.3286 41.7664 59.7166 41.7664 60.1212C41.7664 60.5258 41.9271 60.9138 42.2132 61.1999C42.4992 61.4859 42.8873 61.6467 43.2918 61.6467Z" fill="white" fill-opacity="0.45"/>
<path d="M59.0342 61.6466C59.4381 61.6454 59.8252 61.4851 60.1117 61.2005C60.3959 60.9122 60.556 60.5241 60.5578 60.1192C60.5578 59.7146 60.3971 59.3266 60.111 59.0406C59.8249 58.7545 59.4369 58.5938 59.0323 58.5938C58.6277 58.5938 58.2397 58.7545 57.9536 59.0406C57.6676 59.3266 57.5068 59.7146 57.5068 60.1192C57.5068 60.5203 57.6662 60.9049 57.9498 61.1885C58.2334 61.4721 58.618 61.6315 59.0191 61.6315" fill="white" fill-opacity="0.45"/>
</svg>
